<mxfile host="app.diagrams.net" agent="Mozilla/5.0 (Macintosh; Intel Mac OS X 10.15; rv:133.0) Gecko/20100101 Firefox/133.0" version="24.8.8">
  <diagram name="Page-1" id="DE-jzpJsicGHlw_22pW5">
    <mxGraphModel dx="1434" dy="917" grid="1" gridSize="10" guides="1" tooltips="1" connect="1" arrows="1" fold="1" page="1" pageScale="1" pageWidth="827" pageHeight="1169" math="0" shadow="0">
      <root>
        <mxCell id="0" />
        <mxCell id="1" parent="0" />
        <mxCell id="up_w4CJjMoysOEsJs-9J-4" value="" style="sketch=0;pointerEvents=1;shadow=0;dashed=0;html=1;strokeColor=none;fillColor=#505050;labelPosition=center;verticalLabelPosition=bottom;verticalAlign=top;outlineConnect=0;align=center;shape=mxgraph.office.devices.laptop;" vertex="1" parent="1">
          <mxGeometry x="436" y="270" width="58" height="34" as="geometry" />
        </mxCell>
        <mxCell id="up_w4CJjMoysOEsJs-9J-5" value="QV" style="swimlane;fontStyle=0;childLayout=stackLayout;horizontal=1;startSize=30;horizontalStack=0;resizeParent=1;resizeParentMax=0;resizeLast=0;collapsible=1;marginBottom=0;whiteSpace=wrap;html=1;" vertex="1" parent="1">
          <mxGeometry x="128.5" y="197" width="90" height="130" as="geometry" />
        </mxCell>
        <mxCell id="up_w4CJjMoysOEsJs-9J-6" value="n_shot &amp;gt; 1000" style="text;strokeColor=none;fillColor=none;align=left;verticalAlign=middle;spacingLeft=4;spacingRight=4;overflow=hidden;points=[[0,0.5],[1,0.5]];portConstraint=eastwest;rotatable=0;whiteSpace=wrap;html=1;" vertex="1" parent="up_w4CJjMoysOEsJs-9J-5">
          <mxGeometry y="30" width="90" height="30" as="geometry" />
        </mxCell>
        <mxCell id="up_w4CJjMoysOEsJs-9J-7" value="&lt;div&gt;n_trials &amp;gt; 100&lt;br&gt;&lt;/div&gt;" style="text;strokeColor=none;fillColor=none;align=left;verticalAlign=middle;spacingLeft=4;spacingRight=4;overflow=hidden;points=[[0,0.5],[1,0.5]];portConstraint=eastwest;rotatable=0;whiteSpace=wrap;html=1;" vertex="1" parent="up_w4CJjMoysOEsJs-9J-5">
          <mxGeometry y="60" width="90" height="30" as="geometry" />
        </mxCell>
        <mxCell id="up_w4CJjMoysOEsJs-9J-8" value="&lt;div&gt;confidence&lt;/div&gt;&lt;div&gt;...&lt;br&gt;&lt;/div&gt;" style="text;strokeColor=none;fillColor=none;align=left;verticalAlign=middle;spacingLeft=4;spacingRight=4;overflow=hidden;points=[[0,0.5],[1,0.5]];portConstraint=eastwest;rotatable=0;whiteSpace=wrap;html=1;" vertex="1" parent="up_w4CJjMoysOEsJs-9J-5">
          <mxGeometry y="90" width="90" height="40" as="geometry" />
        </mxCell>
        <mxCell id="up_w4CJjMoysOEsJs-9J-9" value="" style="verticalLabelPosition=bottom;sketch=0;html=1;fillColor=#282828;strokeColor=none;verticalAlign=top;pointerEvents=1;align=center;shape=mxgraph.cisco_safe.people_places_things_icons.icon2;" vertex="1" parent="1">
          <mxGeometry x="250" y="350.6" width="50" height="41" as="geometry" />
        </mxCell>
        <mxCell id="up_w4CJjMoysOEsJs-9J-10" value="" style="verticalLabelPosition=bottom;html=1;verticalAlign=top;align=center;strokeColor=none;fillColor=#00BEF2;shape=mxgraph.azure.git_repository;" vertex="1" parent="1">
          <mxGeometry x="440" y="180" width="50" height="50" as="geometry" />
        </mxCell>
        <mxCell id="up_w4CJjMoysOEsJs-9J-11" value="Schema &amp;amp; definition" style="text;strokeColor=none;align=center;fillColor=none;html=1;verticalAlign=middle;whiteSpace=wrap;rounded=0;" vertex="1" parent="1">
          <mxGeometry x="135.25" y="146.5" width="76.5" height="27" as="geometry" />
        </mxCell>
        <mxCell id="up_w4CJjMoysOEsJs-9J-18" value="" style="group;rotation=0;" vertex="1" connectable="0" parent="1">
          <mxGeometry x="490" y="280" width="100" height="50" as="geometry" />
        </mxCell>
        <mxCell id="up_w4CJjMoysOEsJs-9J-14" value="" style="html=1;points=[[0,0,0,0,5],[0,1,0,0,-5],[1,0,0,0,5],[1,1,0,0,-5]];perimeter=orthogonalPerimeter;outlineConnect=0;targetShapes=umlLifeline;portConstraint=eastwest;newEdgeStyle={&quot;curved&quot;:0,&quot;rounded&quot;:0};rotation=0;" vertex="1" parent="up_w4CJjMoysOEsJs-9J-18">
          <mxGeometry x="90" width="10" height="50" as="geometry" />
        </mxCell>
        <mxCell id="up_w4CJjMoysOEsJs-9J-15" value="dispatch" style="html=1;verticalAlign=bottom;endArrow=block;curved=0;rounded=0;entryX=0;entryY=0;entryDx=0;entryDy=5;" edge="1" target="up_w4CJjMoysOEsJs-9J-14" parent="up_w4CJjMoysOEsJs-9J-18">
          <mxGeometry relative="1" as="geometry">
            <mxPoint y="5" as="sourcePoint" />
          </mxGeometry>
        </mxCell>
        <mxCell id="up_w4CJjMoysOEsJs-9J-19" value="☑️ Review" style="shape=partialRectangle;fillColor=none;align=left;verticalAlign=middle;strokeColor=none;spacingLeft=34;rotatable=0;points=[[0,0.5],[1,0.5]];portConstraint=eastwest;dropTarget=0;" vertex="1" parent="1">
          <mxGeometry x="250" y="210" width="90" height="140" as="geometry" />
        </mxCell>
        <mxCell id="up_w4CJjMoysOEsJs-9J-20" value="" style="shape=partialRectangle;top=0;left=0;bottom=0;fillColor=none;stokeWidth=1;dashed=1;align=left;verticalAlign=middle;spacingLeft=4;spacingRight=4;overflow=hidden;rotatable=0;points=[];portConstraint=eastwest;part=1;" vertex="1" connectable="0" parent="up_w4CJjMoysOEsJs-9J-19">
          <mxGeometry width="30" height="140" as="geometry" />
        </mxCell>
        <mxCell id="up_w4CJjMoysOEsJs-9J-21" value="" style="line;strokeWidth=1;rotatable=0;dashed=0;labelPosition=right;align=left;verticalAlign=middle;spacingTop=0;spacingLeft=6;points=[];portConstraint=eastwest;" vertex="1" parent="1">
          <mxGeometry x="218" y="200" width="222" height="10" as="geometry" />
        </mxCell>
        <mxCell id="up_w4CJjMoysOEsJs-9J-22" value="" style="line;strokeWidth=1;rotatable=0;dashed=0;labelPosition=right;align=left;verticalAlign=middle;spacingTop=0;spacingLeft=6;points=[];portConstraint=eastwest;" vertex="1" parent="1">
          <mxGeometry x="47.5" y="260" width="81" height="10" as="geometry" />
        </mxCell>
        <mxCell id="up_w4CJjMoysOEsJs-9J-23" value="&lt;div&gt;Open Quantum &lt;br&gt;&lt;/div&gt;&lt;div&gt;Benchmark Committee&lt;br&gt;&lt;/div&gt;" style="text;html=1;align=center;verticalAlign=middle;resizable=0;points=[];autosize=1;strokeColor=none;fillColor=none;" vertex="1" parent="1">
          <mxGeometry x="208.5" y="409.2" width="150" height="40" as="geometry" />
        </mxCell>
        <mxCell id="up_w4CJjMoysOEsJs-9J-27" value="" style="shape=flexArrow;endArrow=classic;html=1;rounded=0;exitX=0.5;exitY=1;exitDx=0;exitDy=0;exitPerimeter=0;" edge="1" parent="1" source="up_w4CJjMoysOEsJs-9J-10">
          <mxGeometry width="50" height="50" relative="1" as="geometry">
            <mxPoint x="520" y="423" as="sourcePoint" />
            <mxPoint x="465" y="270" as="targetPoint" />
          </mxGeometry>
        </mxCell>
        <mxCell id="up_w4CJjMoysOEsJs-9J-30" value="" style="image;aspect=fixed;perimeter=ellipsePerimeter;html=1;align=center;shadow=0;dashed=0;fontColor=#4277BB;labelBackgroundColor=default;fontSize=12;spacingTop=3;image=img/lib/ibm/miscellaneous/ibm_public_cloud.svg;" vertex="1" parent="1">
          <mxGeometry x="597.04" y="291.9" width="98.96" height="76.2" as="geometry" />
        </mxCell>
        <mxCell id="up_w4CJjMoysOEsJs-9J-31" value="" style="group;rotation=0;" vertex="1" connectable="0" parent="1">
          <mxGeometry x="470" y="350" width="120" height="50" as="geometry" />
        </mxCell>
        <mxCell id="up_w4CJjMoysOEsJs-9J-32" value="" style="html=1;points=[[0,0,0,0,5],[0,1,0,0,-5],[1,0,0,0,5],[1,1,0,0,-5]];perimeter=orthogonalPerimeter;outlineConnect=0;targetShapes=umlLifeline;portConstraint=eastwest;newEdgeStyle={&quot;curved&quot;:0,&quot;rounded&quot;:0};rotation=0;" vertex="1" parent="up_w4CJjMoysOEsJs-9J-31">
          <mxGeometry x="108.00000000000001" width="12" height="50" as="geometry" />
        </mxCell>
        <mxCell id="up_w4CJjMoysOEsJs-9J-35" value="&lt;div&gt;unitaryfoundation/&lt;br&gt;&lt;/div&gt;&lt;div&gt;metriq-gym&lt;/div&gt;" style="text;html=1;align=center;verticalAlign=middle;resizable=0;points=[];autosize=1;strokeColor=none;fillColor=none;" vertex="1" parent="1">
          <mxGeometry x="420" y="140" width="90" height="40" as="geometry" />
        </mxCell>
        <mxCell id="up_w4CJjMoysOEsJs-9J-37" value="" style="verticalLabelPosition=bottom;html=1;verticalAlign=top;align=center;strokeColor=none;fillColor=#00BEF2;shape=mxgraph.azure.website_generic;pointerEvents=1;direction=south;rotation=90;" vertex="1" parent="1">
          <mxGeometry x="616" y="409.2" width="80" height="97" as="geometry" />
        </mxCell>
        <mxCell id="up_w4CJjMoysOEsJs-9J-38" value="" style="shape=actor;whiteSpace=wrap;html=1;" vertex="1" parent="1">
          <mxGeometry x="8" y="235" width="40" height="60" as="geometry" />
        </mxCell>
        <mxCell id="up_w4CJjMoysOEsJs-9J-39" style="edgeStyle=orthogonalEdgeStyle;rounded=0;orthogonalLoop=1;jettySize=auto;html=1;exitX=0.5;exitY=1;exitDx=0;exitDy=0;" edge="1" parent="1" source="up_w4CJjMoysOEsJs-9J-38" target="up_w4CJjMoysOEsJs-9J-38">
          <mxGeometry relative="1" as="geometry" />
        </mxCell>
        <mxCell id="up_w4CJjMoysOEsJs-9J-45" value="metriq.info" style="text;html=1;align=center;verticalAlign=middle;resizable=0;points=[];autosize=1;strokeColor=none;fillColor=none;" vertex="1" parent="1">
          <mxGeometry x="625.48" y="476.2" width="80" height="30" as="geometry" />
        </mxCell>
        <mxCell id="up_w4CJjMoysOEsJs-9J-48" value="" style="endArrow=classic;html=1;rounded=0;entryX=0.871;entryY=0.396;entryDx=0;entryDy=0;entryPerimeter=0;" edge="1" parent="1" source="up_w4CJjMoysOEsJs-9J-52" target="up_w4CJjMoysOEsJs-9J-37">
          <mxGeometry relative="1" as="geometry">
            <mxPoint x="496" y="466" as="sourcePoint" />
            <mxPoint x="566" y="470" as="targetPoint" />
          </mxGeometry>
        </mxCell>
        <mxCell id="up_w4CJjMoysOEsJs-9J-49" value="publish" style="edgeLabel;resizable=0;html=1;;align=center;verticalAlign=middle;" connectable="0" vertex="1" parent="up_w4CJjMoysOEsJs-9J-48">
          <mxGeometry relative="1" as="geometry" />
        </mxCell>
        <mxCell id="up_w4CJjMoysOEsJs-9J-52" value="" style="html=1;points=[[0,0,0,0,5],[0,1,0,0,-5],[1,0,0,0,5],[1,1,0,0,-5]];perimeter=orthogonalPerimeter;outlineConnect=0;targetShapes=umlLifeline;portConstraint=eastwest;newEdgeStyle={&quot;curved&quot;:0,&quot;rounded&quot;:0};" vertex="1" parent="1">
          <mxGeometry x="460" y="304" width="10" height="166" as="geometry" />
        </mxCell>
        <mxCell id="up_w4CJjMoysOEsJs-9J-53" value="&lt;div&gt;Providers:&lt;/div&gt;&lt;div&gt;- IBM&lt;/div&gt;&lt;div&gt;- AWS&lt;/div&gt;&lt;div&gt;- Quantinuum&lt;/div&gt;&lt;div&gt;- IonQ&lt;/div&gt;&lt;div&gt;- ...&lt;br&gt;&lt;/div&gt;" style="text;html=1;align=left;verticalAlign=middle;resizable=0;points=[];autosize=1;strokeColor=none;fillColor=none;" vertex="1" parent="1">
          <mxGeometry x="705.48" y="280" width="100" height="100" as="geometry" />
        </mxCell>
        <mxCell id="up_w4CJjMoysOEsJs-9J-16" value="job_id" style="html=1;verticalAlign=bottom;endArrow=open;dashed=1;endSize=8;curved=0;rounded=0;exitX=0;exitY=1;exitDx=0;exitDy=-5;" edge="1" source="up_w4CJjMoysOEsJs-9J-14" parent="1" target="up_w4CJjMoysOEsJs-9J-52">
          <mxGeometry relative="1" as="geometry">
            <mxPoint x="490" y="326.875" as="targetPoint" />
          </mxGeometry>
        </mxCell>
        <mxCell id="up_w4CJjMoysOEsJs-9J-33" value="poll" style="html=1;verticalAlign=bottom;endArrow=block;curved=0;rounded=0;entryX=0;entryY=0;entryDx=0;entryDy=5;" edge="1" parent="1" target="up_w4CJjMoysOEsJs-9J-32" source="up_w4CJjMoysOEsJs-9J-52">
          <mxGeometry relative="1" as="geometry">
            <mxPoint x="470" y="353.125" as="sourcePoint" />
          </mxGeometry>
        </mxCell>
        <mxCell id="up_w4CJjMoysOEsJs-9J-34" value="result" style="html=1;verticalAlign=bottom;endArrow=open;dashed=1;endSize=8;curved=0;rounded=0;exitX=0;exitY=1;exitDx=0;exitDy=-5;" edge="1" parent="1" source="up_w4CJjMoysOEsJs-9J-32" target="up_w4CJjMoysOEsJs-9J-52">
          <mxGeometry relative="1" as="geometry">
            <mxPoint x="470" y="396.875" as="targetPoint" />
          </mxGeometry>
        </mxCell>
      </root>
    </mxGraphModel>
  </diagram>
</mxfile>
